<svg width="20" height="20" viewBox="0 0 20 20" fill="none" xmlns="http://www.w3.org/2000/svg">
    <g filter="url(#a)">
        <rect x="1" width="18" height="18" rx="9" fill="url(#b)"/>
    </g>
    <path d="M10.325 14.311h-.046a.345.345 0 0 1-.273-.249l-.935-5.09L5.316 5.77a.312.312 0 0 1-.091-.364.294.294 0 0 1 .295-.205h9.607a.315.315 0 0 1 .273.159.27.27 0 0 1 0 .318l-4.803 8.476a.289.289 0 0 1-.272.158zM6.409 5.817l3.186 2.7c.059.045.1.11.115.182l.796 4.34 4.098-7.226-8.195.004z" fill="#fff"/>
    <path fill-rule="evenodd" clip-rule="evenodd" d="m10.261 14.511-.017-.003a.544.544 0 0 1-.431-.394l-.003-.008-.923-5.028-3.7-3.156a.512.512 0 0 1-.15-.587A.494.494 0 0 1 5.524 5h9.602a.515.515 0 0 1 .442.25.47.47 0 0 1 0 .534l-4.795 8.464a.49.49 0 0 1-.453.263h-.059zm.064-.2a.288.288 0 0 0 .272-.158L15.4 5.677a.27.27 0 0 0 0-.318.315.315 0 0 0-.274-.159H5.52a.294.294 0 0 0-.295.205.312.312 0 0 0 .09.364l3.756 3.203.935 5.09a.344.344 0 0 0 .273.25h.046zm-.419-5.648.697 3.8 3.658-6.45-7.307.004L9.72 8.362c.095.074.16.179.185.296l.001.005zm-.311-.145L6.409 5.817l8.195-.004-4.098 7.226-.797-4.34a.305.305 0 0 0-.114-.181z" fill="#fff"/>
    <path d="M9.407 9.18a.302.302 0 0 1-.26-.17.32.32 0 0 1 .092-.426l.028-.016 5.65-3.24a.297.297 0 0 1 .416.126.337.337 0 0 1-.115.442L9.556 9.162a.414.414 0 0 1-.15.018z" fill="#fff"/>
    <path fill-rule="evenodd" clip-rule="evenodd" d="m9.266 8.568 5.65-3.24a.297.297 0 0 1 .417.126.337.337 0 0 1-.115.442L9.556 9.162a.414.414 0 0 1-.15.018.302.302 0 0 1-.26-.17.32.32 0 0 1 .093-.426l.027-.016zm-.296.537a.52.52 0 0 1 .155-.685l.006-.004.036-.021 5.649-3.24a.5.5 0 0 1 .572.051.537.537 0 0 1-.062.858l-.008.005-5.681 3.277-.021.006a.614.614 0 0 1-.22.028.502.502 0 0 1-.426-.275z" fill="#fff"/>
    <defs>
        <linearGradient id="b" x1="19" y1="0" x2="1" y2="18" gradientUnits="userSpaceOnUse">
            <stop stop-color="#3845D1"/>
            <stop offset=".318" stop-color="#D6499E"/>
            <stop offset=".682" stop-color="#EE772F"/>
            <stop offset="1" stop-color="#F7C55C"/>
        </linearGradient>
        <filter id="a" x="0" y="0" width="20" height="20" filterUnits="userSpaceOnUse" color-interpolation-filters="sRGB">
            <feFlood flood-opacity="0" result="BackgroundImageFix"/>
            <feColorMatrix in="SourceAlpha" values="0 0 0 0 0 0 0 0 0 0 0 0 0 0 0 0 0 0 127 0" result="hardAlpha"/>
            <feOffset dy="1"/>
            <feGaussianBlur stdDeviation=".5"/>
            <feColorMatrix values="0 0 0 0 0 0 0 0 0 0 0 0 0 0 0 0 0 0 0.25 0"/>
            <feBlend in2="BackgroundImageFix" result="effect1_dropShadow_1423:11902"/>
            <feBlend in="SourceGraphic" in2="effect1_dropShadow_1423:11902" result="shape"/>
        </filter>
    </defs>
</svg>
