<?xml version="1.0" encoding="UTF-8" standalone="no"?>
<svg
   xmlns:dc="http://purl.org/dc/elements/1.1/"
   xmlns:cc="http://creativecommons.org/ns#"
   xmlns:rdf="http://www.w3.org/1999/02/22-rdf-syntax-ns#"
   xmlns:svg="http://www.w3.org/2000/svg"
   xmlns="http://www.w3.org/2000/svg"
   xmlns:sodipodi="http://sodipodi.sourceforge.net/DTD/sodipodi-0.dtd"
   xmlns:inkscape="http://www.inkscape.org/namespaces/inkscape"
   viewBox="0 0 700 700"
   version="1.1"
   id="svg21"
   sodipodi:docname="facebook-messenger-logo-2021.svg"
   width="700"
   height="700"
   inkscape:version="0.92.4 (5da689c313, 2019-01-14)"
   inkscape:export-filename="G:\Users\suitedoalex\sites\facebook-messenger-logo-0.png"
   inkscape:export-xdpi="561.73712"
   inkscape:export-ydpi="561.73712">
  <metadata
     id="metadata25">
    <rdf:RDF>
      <cc:Work
         rdf:about="">
        <dc:format>image/svg+xml</dc:format>
        <dc:type
           rdf:resource="http://purl.org/dc/dcmitype/StillImage" />
        <dc:title>Group</dc:title>
      </cc:Work>
    </rdf:RDF>
  </metadata>
  <sodipodi:namedview
     pagecolor="#ffffff"
     bordercolor="#666666"
     borderopacity="1"
     objecttolerance="10"
     gridtolerance="10"
     guidetolerance="10"
     inkscape:pageopacity="0"
     inkscape:pageshadow="2"
     inkscape:window-width="1600"
     inkscape:window-height="837"
     id="namedview23"
     showgrid="false"
     inkscape:zoom="0.67045455"
     inkscape:cx="221.47408"
     inkscape:cy="341.68278"
     inkscape:window-x="-8"
     inkscape:window-y="-8"
     inkscape:window-maximized="1"
     inkscape:current-layer="svg21" />
  <title
     id="title2">Group</title>
  <defs
     id="defs13">
    <radialGradient
       cx="4.2344327"
       cy="21.882322"
       fx="4.2344327"
       fy="21.882322"
       r="23.971088"
       id="radialGradient-1"
       gradientUnits="userSpaceOnUse">
      <stop
         stop-color="#0099FF"
         offset="0%"
         id="stop4" />
      <stop
         stop-color="#A033FF"
         offset="60.9753877%"
         id="stop6" />
      <stop
         stop-color="#FF5280"
         offset="93.482299%"
         id="stop8" />
      <stop
         stop-color="#FF7061"
         offset="100%"
         id="stop10" />
    </radialGradient>
  </defs>
  <g
     id="Logo"
     style="fill:none;fill-rule:evenodd;stroke:none;stroke-width:1"
     transform="matrix(22.423768,0,0,22.423768,103.33855,103.33901)"
     inkscape:export-filename="G:\Users\suitedoalex\sites\facebook-messenger-logo-4.png"
     inkscape:export-xdpi="77.839485"
     inkscape:export-ydpi="77.839485">
    <g
       id="logo"
       transform="translate(-112,-122)">
      <g
         id="Group"
         transform="translate(112,122)">
        <path
           d="M 11,0 C 4.80337,0 0,4.53904 0,10.67 c 0,3.206896 1.31428,5.978016 3.454616,7.89206 0.179674,0.16082 0.288134,0.3861 0.295504,0.62722 l 0.059906,1.95668 c 0.01914,0.62414 0.663828,1.03026 1.234948,0.77814 L 7.22832,20.96028 C 7.413406,20.87866 7.6208,20.86348 7.81583,20.91716 8.81914,21.19304 9.886976,21.34 11,21.34 17.19663,21.34 22,16.80096 22,10.67 22,4.53904 17.19663,0 11,0 Z"
           id="Path"
           inkscape:connector-curvature="0"
           style="fill:url(#radialGradient-1)" />
        <path
           d="m 4.394544,13.790392 3.23125,-5.12644 C 8.13978,7.848412 9.24044,7.645352 10.01165,8.223732 l 2.569974,1.927486 c 0.235796,0.17688 0.56023,0.175934 0.795036,-0.0023 l 3.470874,-2.63417 c 0.463276,-0.35156 1.06799,0.20284 0.757966,0.694826 l -3.23125,5.126484 c -0.51403,0.815496 -1.61469,1.0186 -2.385856,0.440176 l -2.57004,-1.92753 c -0.235774,-0.176836 -0.56023,-0.17589 -0.795014,0.0023 l -3.470896,2.63417 c -0.463254,0.351538 -1.06799,-0.202862 -0.7579,-0.694826 z"
           id="path16"
           inkscape:connector-curvature="0"
           style="fill:#ffffff" />
      </g>
    </g>
  </g>
</svg>
