<svg width="55" height="55" viewBox="0 0 55 55" fill="none" xmlns="http://www.w3.org/2000/svg">
    <rect width="55" height="55" rx="5" fill="#0ACF83"/>
    <path fill-rule="evenodd" clip-rule="evenodd" d="M38.338 16.527a15.832 15.832 0 0 0-11.271-4.671c-8.782 0-15.93 7.145-15.933 15.927a15.895 15.895 0 0 0 2.126 7.963L11 44l8.446-2.215a15.927 15.927 0 0 0 7.614 1.939h.007c8.781 0 15.93-7.146 15.933-15.928a15.83 15.83 0 0 0-4.662-11.269zM27.067 41.034h-.006a13.227 13.227 0 0 1-6.74-1.846l-.483-.287-5.013 1.315 1.338-4.886-.315-.5a13.204 13.204 0 0 1-2.024-7.046c.002-7.3 5.943-13.238 13.248-13.238a13.156 13.156 0 0 1 9.363 3.883 13.157 13.157 0 0 1 3.875 9.366c-.003 7.3-5.944 13.239-13.243 13.239z" fill="#fff"/>
    <path fill-rule="evenodd" clip-rule="evenodd" d="M21.724 35.498c.112.068.343.068.871.068 2.242-.003 4.179-.01 5.556-.01 6.429 0 6.26-6.767 3.254-7.611.44-.78 2.446-2.245 1.206-5.274-1.227-2.995-6.503-2.315-10.11-2.313-1.336 0-1.136.986-1.13 2.52.012 2.43.003 9.005.001 11.848 0 .576.174.665.352.772zm2.782-2.48c.607 0 2.039 0 3.266-.002 1.39-.002 2.628-.652 2.597-2.036-.023-1.303-.89-1.73-2.094-1.85-1.146.01-2.457.01-3.77.01v3.878zm0-6.495c2.418-.033 3.35.098 4.671-.233.907-.515 1.303-2.425.005-3.073-.902-.45-3.567-.297-4.676-.25v3.556z" fill="#fff"/>
</svg>
