<svg xmlns="http://www.w3.org/2000/svg" width="55" height="55" fill="none" viewBox="0 0 55 55">
    <rect width="55" height="55" fill="#0ACF83" rx="5"/>
    <path fill="#fff" d="M35.328 30.177c-.401-.203-2.354-1.156-2.719-1.292-.365-.13-.63-.198-.896.203-.26.391-1.026 1.286-1.26 1.547-.234.261-.464.281-.859.104-.401-.203-1.682-.62-3.203-1.984-1.188-1.057-1.979-2.359-2.214-2.76-.234-.396-.026-.62.172-.818.182-.182.401-.458.604-.698.193-.24.255-.401.396-.661.13-.281.063-.5-.036-.698-.099-.198-.896-2.161-1.229-2.943-.318-.776-.651-.677-.896-.677-.229-.021-.495-.021-.76-.021s-.698.099-1.063.479c-.365.401-1.396 1.359-1.396 3.297 0 1.943 1.427 3.823 1.625 4.104.203.26 2.807 4.26 6.802 5.979.953.401 1.693.641 2.271.839.953.302 1.823.26 2.51.161.76-.125 2.354-.964 2.688-1.901.339-.943.339-1.724.24-1.901-.099-.182-.359-.281-.76-.458l-.017.099zM28.083 40h-.021c-2.365 0-4.703-.641-6.745-1.839l-.479-.286-5 1.302 1.344-4.865-.323-.5c-1.32-2.1-2.021-4.53-2.021-7.01 0-7.26 5.943-13.182 13.255-13.182 3.542 0 6.865 1.38 9.365 3.88 1.233 1.219 2.212 2.67 2.878 4.271.666 1.6 1.007 3.318 1.002 5.052C41.328 34.078 35.39 40 28.088 40h-.005zm11.276-24.401C36.317 12.661 32.317 11 28.062 11c-8.776 0-15.922 7.115-15.927 15.859 0 2.792.729 5.516 2.125 7.927L12 43l8.448-2.203c2.34 1.262 4.956 1.925 7.615 1.932h.005c8.781 0 15.927-7.115 15.932-15.865 0-4.234-1.651-8.219-4.661-11.214l.02-.051z"/>
</svg>
