<svg width="12" height="14" fill="none" xmlns="http://www.w3.org/2000/svg">
    <path d="M1.132 1.775a.846.846 0 0 0-.846.846v.846a.846.846 0 0 0 .846.846h.423v7.616a1.693 1.693 0 0 0 1.692 1.692h5.077a1.693 1.693 0 0 0 1.693-1.692V4.313h.423a.846.846 0 0 0 .846-.846v-.846a.846.846 0 0 0-.846-.846H7.478a.846.846 0 0 0-.846-.846H4.94a.846.846 0 0 0-.847.846H1.132zM3.67 5.159a.423.423 0 0 1 .423.424v5.923a.423.423 0 1 1-.846 0V5.583a.423.423 0 0 1 .423-.424zm2.116 0a.423.423 0 0 1 .423.424v5.923a.423.423 0 1 1-.846 0V5.583a.423.423 0 0 1 .423-.424zm2.538.424v5.923a.423.423 0 1 1-.846 0V5.583a.423.423 0 0 1 .846 0z" fill="#232F3E"/>
</svg>
