<svg width="15" height="17" viewBox="0 0 15 17" fill="none" xmlns="http://www.w3.org/2000/svg">
    <path d="M14.45 2.067 12.827.445a1.5 1.5 0 0 0-1.06-.44h-5.38a1.5 1.5 0 0 0-1.5 1.5v1.5h-2.5a1.5 1.5 0 0 0-1.5 1.5v10a1.5 1.5 0 0 0 1.5 1.5h7a1.5 1.5 0 0 0 1.5-1.5v-1.5h2.5a1.5 1.5 0 0 0 1.5-1.5V3.128a1.5 1.5 0 0 0-.439-1.06zM9.2 14.506H2.576a.187.187 0 0 1-.187-.188V4.693a.188.188 0 0 1 .187-.187H4.89v7a1.5 1.5 0 0 0 1.5 1.5h3v1.312a.187.187 0 0 1-.188.188zm4-3H6.576a.187.187 0 0 1-.187-.188V1.693a.188.188 0 0 1 .187-.187H9.89v2.75c0 .414.336.75.75.75h2.75v6.312a.187.187 0 0 1-.188.188zm.188-8h-2v-2h.3c.05 0 .098.02.133.055l1.512 1.511a.187.187 0 0 1 .055.133v.3z" fill="#606060"/>
</svg>
