<svg width="346" height="54" viewBox="0 0 346 54" fill="none" xmlns="http://www.w3.org/2000/svg">
<path d="M271.889 10.0451C271.889 10.4394 271.732 10.8174 271.453 11.0962C271.175 11.375 270.797 11.5316 270.402 11.5316H230.01C217.305 11.5316 215.768 17.1047 215.768 27.2431C215.768 37.3814 217.318 42.8741 230.01 42.8741H270.394C270.788 42.8741 271.166 43.0307 271.445 43.3094C271.724 43.5882 271.88 43.9663 271.88 44.3605V52.2247C271.88 52.619 271.724 52.9971 271.445 53.2758C271.166 53.5546 270.788 53.7112 270.394 53.7112H230.01C210.953 53.7112 204.469 44.6527 204.469 27.2431C204.469 9.83338 210.97 0.774926 230.01 0.774926H270.394C270.59 0.77381 270.784 0.811434 270.965 0.885636C271.147 0.959837 271.312 1.06915 271.451 1.20729C271.589 1.34543 271.7 1.50968 271.775 1.69057C271.85 1.87147 271.889 2.06546 271.889 2.26138V10.0451Z" fill="#606060"/>
<path d="M334.799 52.2247V33.5912C334.797 33.3956 334.757 33.2023 334.68 33.0223C334.604 32.8423 334.492 32.6792 334.353 32.5423C334.213 32.4054 334.048 32.2974 333.866 32.2245C333.685 32.1515 333.491 32.1152 333.295 32.1174H291.861C291.467 32.1174 291.089 32.274 290.81 32.5528C290.531 32.8315 290.374 33.2096 290.374 33.6039V52.2374C290.374 52.6309 290.218 53.0084 289.941 53.287C289.663 53.5656 289.286 53.7228 288.892 53.7239H280.782C280.388 53.7239 280.01 53.5673 279.731 53.2885C279.453 53.0097 279.296 52.6317 279.296 52.2374V2.26135C279.296 1.86712 279.453 1.48904 279.731 1.21027C280.01 0.93151 280.388 0.774902 280.782 0.774902H288.879C289.273 0.776023 289.65 0.933126 289.928 1.21177C290.206 1.49041 290.362 1.86785 290.362 2.26135V20.8017C290.362 21.196 290.518 21.5741 290.797 21.8528C291.076 22.1316 291.454 22.2882 291.848 22.2882H333.295C333.689 22.2882 334.067 22.1316 334.346 21.8528C334.625 21.5741 334.782 21.196 334.782 20.8017V2.26135C334.782 1.86712 334.938 1.48904 335.217 1.21027C335.496 0.93151 335.874 0.774902 336.268 0.774902H344.365C344.759 0.774902 345.137 0.93151 345.416 1.21027C345.695 1.48904 345.852 1.86712 345.852 2.26135V52.2332C345.852 52.6274 345.695 53.0055 345.416 53.2843C345.137 53.563 344.759 53.7196 344.365 53.7196H336.285C336.089 53.7196 335.895 53.6809 335.714 53.6057C335.533 53.5305 335.369 53.4202 335.231 53.2813C335.093 53.1423 334.983 52.9775 334.909 52.7962C334.835 52.6148 334.797 52.4206 334.799 52.2247Z" fill="#606060"/>
<path d="M0.00847161 2.26135C0.00847161 1.86712 0.165082 1.48904 0.443845 1.21027C0.722609 0.93151 1.10069 0.774902 1.49492 0.774902H45.9614C58.9625 0.774902 67.0131 6.65718 67.0131 17.2571C67.0131 23.4062 64.3112 27.5945 59.4749 29.9957C59.2307 30.1176 59.0247 30.3045 58.8796 30.5357C58.7345 30.767 58.6559 31.0337 58.6524 31.3067C58.6489 31.5797 58.7206 31.8483 58.8598 32.0832C58.9989 32.3181 59.2 32.5102 59.4411 32.6383C63.8708 35.0268 65.8527 38.7535 65.8527 43.2637V52.2247C65.8527 52.6189 65.6961 52.997 65.4173 53.2758C65.1386 53.5546 64.7605 53.7112 64.3663 53.7112H55.9092C55.5149 53.7112 55.1368 53.5546 54.8581 53.2758C54.5793 52.997 54.4227 52.6189 54.4227 52.2247V43.0307C54.4227 40.0663 52.7965 36.2973 45.7539 36.2973H12.5522C12.158 36.2973 11.7799 36.4539 11.5012 36.7326C11.2224 37.0114 11.0658 37.3895 11.0658 37.7837V52.2247C11.0658 52.6189 10.9092 52.997 10.6304 53.2758C10.3517 53.5546 9.97358 53.7112 9.57935 53.7112H1.48645C1.09222 53.7112 0.714137 53.5546 0.435374 53.2758C0.15661 52.997 0 52.6189 0 52.2247L0.00847161 2.26135ZM46.8211 26.468C53.6308 26.468 55.7144 21.9791 55.7144 18.498C55.7144 15.0169 53.6223 10.5236 46.8211 10.5236H12.5522C12.158 10.5236 11.7799 10.6803 11.5012 10.959C11.2224 11.2378 11.0658 11.6159 11.0658 12.0101V24.9858C11.0658 25.3801 11.2224 25.7581 11.5012 26.0369C11.7799 26.3157 12.158 26.4723 12.5522 26.4723L46.8211 26.468Z" fill="#606060"/>
<path d="M125.048 45.2625C125.164 45.0362 125.219 44.784 125.209 44.5301C125.199 44.2762 125.123 44.0292 124.99 43.8128C124.857 43.5963 124.671 43.4177 124.449 43.2942C124.227 43.1706 123.977 43.1061 123.723 43.107H99.228C89.7503 43.107 86.3497 39.8757 85.2529 33.9426C85.2124 33.7288 85.2196 33.5086 85.2739 33.2979C85.3281 33.0871 85.4281 32.8909 85.5668 32.7231C85.7054 32.5553 85.8793 32.4202 86.0761 32.3272C86.2729 32.2342 86.4878 32.1857 86.7054 32.1852H130.748C131.023 32.1852 131.292 32.1093 131.526 31.9658C131.76 31.8223 131.95 31.6168 132.074 31.3721L135.585 24.4353C135.697 24.2088 135.75 23.9574 135.738 23.7048C135.726 23.4523 135.65 23.2069 135.517 22.992C135.384 22.777 135.198 22.5996 134.977 22.4765C134.756 22.3533 134.508 22.2885 134.255 22.2882H86.7054C86.4879 22.2886 86.273 22.2412 86.0759 22.1493C85.8788 22.0573 85.7043 21.9232 85.5648 21.7562C85.4254 21.5893 85.3244 21.3937 85.269 21.1834C85.2136 20.9731 85.2052 20.7531 85.2444 20.5392C86.3497 14.6103 89.7503 11.2986 99.2195 11.2986H141.327C141.602 11.2997 141.871 11.2241 142.106 11.0805C142.34 10.9369 142.529 10.7308 142.653 10.4855L146.464 2.93047C146.578 2.70398 146.633 2.45205 146.622 2.19864C146.611 1.94523 146.536 1.69878 146.403 1.48272C146.27 1.26667 146.084 1.0882 145.863 0.96431C145.642 0.840415 145.392 0.775211 145.139 0.774902H99.228C80.2684 0.774902 73.6958 9.82912 73.6958 27.243C73.6958 44.6569 80.2768 53.7112 99.2365 53.7112H119.856C120.131 53.7113 120.401 53.6349 120.635 53.4906C120.869 53.3463 121.058 53.1396 121.182 52.8938L125.048 45.2625Z" fill="#606060"/>
<path d="M203.025 53.7113H194.445C194.172 53.7114 193.904 53.6359 193.671 53.4932C193.438 53.3504 193.248 53.146 193.124 52.9024L187.221 41.4343C187.094 41.1927 186.905 40.9901 186.672 40.8484C186.439 40.7066 186.172 40.631 185.899 40.6296H148.704C148.432 40.6305 148.164 40.7059 147.931 40.8478C147.699 40.9896 147.509 41.1924 147.383 41.4343L141.48 52.9024C141.355 53.146 141.166 53.3504 140.933 53.4932C140.7 53.6359 140.432 53.7114 140.158 53.7113H131.65C131.396 53.7105 131.146 53.6447 130.924 53.52C130.703 53.3954 130.516 53.2161 130.384 52.9992C130.251 52.7823 130.176 52.535 130.165 52.2809C130.155 52.0267 130.21 51.7741 130.325 51.5472L150.894 11.2225C154.222 4.65839 158.246 0 167.287 0C176.329 0 180.292 4.65839 183.697 11.2225L204.334 51.5472C204.449 51.7727 204.505 52.024 204.496 52.2773C204.488 52.5305 204.414 52.7772 204.283 52.994C204.152 53.2108 203.967 53.3906 203.747 53.5161C203.527 53.6416 203.279 53.7088 203.025 53.7113V53.7113ZM172.792 13.467C171.632 11.2225 170.163 9.8292 167.287 9.8292C164.412 9.8292 162.955 11.2225 161.782 13.467L153.951 28.6322C153.834 28.8588 153.778 29.1117 153.787 29.3666C153.796 29.6214 153.87 29.8697 154.003 30.0875C154.136 30.3053 154.322 30.4852 154.544 30.6101C154.767 30.735 155.018 30.8005 155.273 30.8004H179.263C179.518 30.8001 179.768 30.7345 179.99 30.6099C180.212 30.4853 180.398 30.3058 180.53 30.0886C180.663 29.8714 180.737 29.6239 180.747 29.3696C180.757 29.1153 180.701 28.8629 180.585 28.6364L172.792 13.467Z" fill="#606060"/>
</svg>
